{
  "accessors": [
    {
      "bufferView": 2,
      "componentType": 5126,
      "count": 2929,
      "max": [
        22.877700805664063,
        21.06719970703125,
        33.914798736572266
      ],
      "min": [
        -22.877700805664063,
        -34.20970153808594,
        -15.434399604797363
      ],
      "type": "VEC3"
    },
    {
      "bufferView": 2,
      "byteOffset": 35148,
      "componentType": 5126,
      "count": 2929,
      "max": [
        1.0,
        1.0,
        1.0
      ],
      "min": [
        -1.0,
        -1.0,
        -1.0
      ],
      "type": "VEC3"
    },
    {
      "bufferView": 3,
      "componentType": 5126,
      "count": 2929,
      "max": [
        1.0,
        1.0,
        1.0,
        1.0
      ],
      "min": [
        -1.0,
        -1.0,
        -1.0,
        -1.0
      ],
      "type": "VEC4"
    },
    {
      "bufferView": 1,
      "componentType": 5126,
      "count": 2929,
      "max": [
        0.9943000078201294,
        0.9908999800682068
      ],
      "min": [
        0.00860000029206276,
        0.009499999694526196
      ],
      "type": "VEC2"
    },
    {
      "bufferView": 0,
      "componentType": 5125,
      "count": 7770,
      "type": "SCALAR"
    },
    {
      "bufferView": 2,
      "byteOffset": 70296,
      "componentType": 5126,
      "count": 5165,
      "max": [
        21.04330062866211,
        21.06719970703125,
        33.914798736572266
      ],
      "min": [
        -21.04330062866211,
        -26.95560073852539,
        -15.434399604797363
      ],
      "type": "VEC3"
    },
    {
      "bufferView": 2,
      "byteOffset": 132276,
      "componentType": 5126,
      "count": 5165,
      "max": [
        1.0,
        1.0,
        1.0
      ],
      "min": [
        -1.0,
        -1.0,
        -1.0
      ],
      "type": "VEC3"
    },
    {
      "bufferView": 3,
      "byteOffset": 46864,
      "componentType": 5126,
      "count": 5165,
      "max": [
        1.0,
        1.0,
        1.0,
        1.0
      ],
      "min": [
        -1.0,
        -1.0,
        -1.0,
        -1.0
      ],
      "type": "VEC4"
    },
    {
      "bufferView": 1,
      "byteOffset": 23432,
      "componentType": 5126,
      "count": 5165,
      "max": [
        0.9943000078201294,
        0.9908999800682068
      ],
      "min": [
        0.008999999612569809,
        0.005200000014156103
      ],
      "type": "VEC2"
    },
    {
      "bufferView": 0,
      "byteOffset": 31080,
      "componentType": 5125,
      "count": 8106,
      "type": "SCALAR"
    }
  ],
  "asset": {
    "extras": {
      "author": "nickheitzman (https://sketchfab.com/nickheitzman)",
      "license": "CC-BY-4.0 (http://creativecommons.org/licenses/by/4.0/)",
      "source": "https://sketchfab.com/3d-models/utility-robot-efe7b67fc77748949562e51c30795dd8",
      "title": "Utility Robot"
    },
    "generator": "Sketchfab-12.64.0",
    "version": "2.0"
  },
  "bufferViews": [
    {
      "buffer": 0,
      "byteLength": 63504,
      "name": "floatBufferViews",
      "target": 34963
    },
    {
      "buffer": 0,
      "byteLength": 64752,
      "byteOffset": 63504,
      "byteStride": 8,
      "name": "floatBufferViews",
      "target": 34962
    },
    {
      "buffer": 0,
      "byteLength": 194256,
      "byteOffset": 128256,
      "byteStride": 12,
      "name": "floatBufferViews",
      "target": 34962
    },
    {
      "buffer": 0,
      "byteLength": 129504,
      "byteOffset": 322512,
      "byteStride": 16,
      "name": "floatBufferViews",
      "target": 34962
    }
  ],
  "buffers": [
    {
      "byteLength": 452016,
      "uri": "scene.bin"
    }
  ],
  "extensionsUsed": [
    "KHR_materials_clearcoat"
  ],
  "images": [
    {
      "uri": "textures/Box001_mtl_baseColor.jpeg"
    },
    {
      "uri": "textures/Box001_mtl_emissive.jpeg"
    },
    {
      "uri": "textures/Box001_mtl_normal.png"
    }
  ],
  "materials": [
    {
      "emissiveFactor": [
        0.45,
        0.45,
        0.45
      ],
      "emissiveTexture": {
        "index": 1
      },
      "extensions": {
        "KHR_materials_clearcoat": {
          "clearcoatFactor": 1.0,
          "clearcoatRoughnessFactor": 0.04
        }
      },
      "name": "Box001_mtl",
      "normalTexture": {
        "index": 2
      },
      "pbrMetallicRoughness": {
        "baseColorTexture": {
          "index": 0
        },
        "metallicFactor": 0.08708079268292683,
        "roughnessFactor": 0.4
      }
    }
  ],
  "meshes": [
    {
      "name": "Object_0",
      "primitives": [
        {
          "attributes": {
            "NORMAL": 1,
            "POSITION": 0,
            "TANGENT": 2,
            "TEXCOORD_0": 3
          },
          "indices": 4,
          "material": 0,
          "mode": 4
        }
      ]
    },
    {
      "name": "Object_1",
      "primitives": [
        {
          "attributes": {
            "NORMAL": 6,
            "POSITION": 5,
            "TANGENT": 7,
            "TEXCOORD_0": 8
          },
          "indices": 9,
          "material": 0,
          "mode": 4
        }
      ]
    }
  ],
  "nodes": [
    {
      "children": [
        1
      ],
      "matrix": [
        1.0,
        0.0,
        0.0,
        0.0,
        0.0,
        2.220446049250313e-16,
        -1.0,
        0.0,
        0.0,
        1.0,
        2.220446049250313e-16,
        0.0,
        0.0,
        0.0,
        0.0,
        1.0
      ],
      "name": "Sketchfab_model"
    },
    {
      "children": [
        2,
        3
      ],
      "name": "Utility_Robot.obj.cleaner"
    },
    {
      "mesh": 0,
      "name": "Object_2"
    },
    {
      "mesh": 1,
      "name": "Object_3"
    }
  ],
  "samplers": [
    {
      "magFilter": 9729,
      "minFilter": 9987,
      "wrapS": 10497,
      "wrapT": 10497
    }
  ],
  "scene": 0,
  "scenes": [
    {
      "name": "Sketchfab_Scene",
      "nodes": [
        0
      ]
    }
  ],
  "textures": [
    {
      "sampler": 0,
      "source": 0
    },
    {
      "sampler": 0,
      "source": 1
    },
    {
      "sampler": 0,
      "source": 2
    }
  ]
}
