{
  "accessors": [
    {
      "bufferView": 2,
      "componentType": 5126,
      "count": 6019,
      "max": [
        8.436326026916504,
        50.16518783569336,
        1.4546382427215576
      ],
      "min": [
        -8.436326026916504,
        -48.0373649597168,
        -1.4546382427215576
      ],
      "type": "VEC3"
    },
    {
      "bufferView": 2,
      "byteOffset": 72228,
      "componentType": 5126,
      "count": 6019,
      "max": [
        1.0,
        1.0,
        1.0
      ],
      "min": [
        -1.0,
        -1.0,
        -1.0
      ],
      "type": "VEC3"
    },
    {
      "bufferView": 3,
      "componentType": 5126,
      "count": 6019,
      "max": [
        1.0,
        0.9989550709724426,
        1.0,
        1.0
      ],
      "min": [
        -0.992132306098938,
        -0.9999838471412659,
        -1.0,
        1.0
      ],
      "type": "VEC4"
    },
    {
      "bufferView": 1,
      "componentType": 5126,
      "count": 6019,
      "max": [
        0.9990234375,
        0.9937729835510254
      ],
      "min": [
        0.0009765625,
        0.0009765550494194031
      ],
      "type": "VEC2"
    },
    {
      "bufferView": 0,
      "componentType": 5125,
      "count": 24498,
      "type": "SCALAR"
    }
  ],
  "asset": {
    "extras": {
      "author": "Ole Gunnar Isager (https://sketchfab.com/FrenchBaguette)",
      "license": "CC-BY-4.0 (http://creativecommons.org/licenses/by/4.0/)",
      "source": "https://sketchfab.com/3d-models/jade-sword-e17b04ace1f6446a9d7080ffd327fb4b",
      "title": "Jade Sword"
    },
    "generator": "Sketchfab-12.65.0",
    "version": "2.0"
  },
  "bufferViews": [
    {
      "buffer": 0,
      "byteLength": 97992,
      "name": "floatBufferViews",
      "target": 34963
    },
    {
      "buffer": 0,
      "byteLength": 48152,
      "byteOffset": 97992,
      "byteStride": 8,
      "name": "floatBufferViews",
      "target": 34962
    },
    {
      "buffer": 0,
      "byteLength": 144456,
      "byteOffset": 146144,
      "byteStride": 12,
      "name": "floatBufferViews",
      "target": 34962
    },
    {
      "buffer": 0,
      "byteLength": 96304,
      "byteOffset": 290600,
      "byteStride": 16,
      "name": "floatBufferViews",
      "target": 34962
    }
  ],
  "buffers": [
    {
      "byteLength": 386904,
      "uri": "scene.bin"
    }
  ],
  "images": [
    {
      "uri": "textures/MAT_Lowpoly_baseColor.png"
    },
    {
      "uri": "textures/MAT_Lowpoly_metallicRoughness.png"
    },
    {
      "uri": "textures/MAT_Lowpoly_normal.png"
    }
  ],
  "materials": [
    {
      "doubleSided": true,
      "name": "MAT_Lowpoly",
      "normalTexture": {
        "index": 2
      },
      "occlusionTexture": {
        "index": 1
      },
      "pbrMetallicRoughness": {
        "baseColorTexture": {
          "index": 0
        },
        "metallicRoughnessTexture": {
          "index": 1
        }
      }
    }
  ],
  "meshes": [
    {
      "name": "polySurface10_MAT_Lowpoly_0",
      "primitives": [
        {
          "attributes": {
            "NORMAL": 1,
            "POSITION": 0,
            "TANGENT": 2,
            "TEXCOORD_0": 3
          },
          "indices": 4,
          "material": 0,
          "mode": 4
        }
      ]
    }
  ],
  "nodes": [
    {
      "children": [
        1
      ],
      "matrix": [
        0.48538893461227417,
        -0.685324728488922,
        -0.5428882241249086,
        0.0,
        0.06557266414165497,
        0.647728502750397,
        -0.7590441703796386,
        0.0,
        0.8718358874320984,
        0.3328329920768737,
        0.359338790178299,
        0.0,
        -0.8759756088256836,
        1.1239283084869385,
        -0.012005108408629644,
        1.0
      ],
      "name": "Sketchfab_model"
    },
    {
      "children": [
        2
      ],
      "matrix": [
        1.0,
        0.0,
        0.0,
        0.0,
        0.0,
        0.0,
        1.0,
        0.0,
        0.0,
        -1.0,
        0.0,
        0.0,
        0.0,
        0.0,
        0.0,
        1.0
      ],
      "name": "d59c46b9bf414e7c80d12df441e1b5db.fbx"
    },
    {
      "children": [
        3
      ],
      "name": "RootNode"
    },
    {
      "children": [
        4
      ],
      "name": "polySurface10"
    },
    {
      "mesh": 0,
      "name": "polySurface10_MAT_Lowpoly_0"
    }
  ],
  "samplers": [
    {
      "magFilter": 9729,
      "minFilter": 9987,
      "wrapS": 10497,
      "wrapT": 10497
    }
  ],
  "scene": 0,
  "scenes": [
    {
      "name": "Sketchfab_Scene",
      "nodes": [
        0
      ]
    }
  ],
  "textures": [
    {
      "sampler": 0,
      "source": 0
    },
    {
      "sampler": 0,
      "source": 1
    },
    {
      "sampler": 0,
      "source": 2
    }
  ]
}
